<mxfile host="app.diagrams.net" modified="2021-07-30T02:37:17.330Z" agent="5.0 (Windows NT 10.0; Win64; x64) AppleWebKit/537.36 (KHTML, like Gecko) Chrome/92.0.4515.107 Safari/537.36 Edg/92.0.902.55" etag="v17HqogLSsvk_Hsk9fs5" version="14.9.3" type="github">
  <diagram name="Page-1" id="58cdce13-f638-feb5-8d6f-7d28b1aa9fa0">
    <mxGraphModel dx="994" dy="1438" grid="1" gridSize="10" guides="1" tooltips="1" connect="1" arrows="1" fold="1" page="1" pageScale="1" pageWidth="1100" pageHeight="850" background="none" math="0" shadow="0">
      <root>
        <mxCell id="0" />
        <mxCell id="1" parent="0" />
        <mxCell id="g58xPv6Zyt1ytckCVxfV-57" style="edgeStyle=orthogonalEdgeStyle;rounded=0;orthogonalLoop=1;jettySize=auto;html=1;exitX=0;exitY=0.75;exitDx=0;exitDy=0;entryX=0.5;entryY=0;entryDx=0;entryDy=0;fontSize=15;strokeColor=#FF0000;" edge="1" parent="1" source="382b91b5511bd0f7-7" target="g58xPv6Zyt1ytckCVxfV-38">
          <mxGeometry relative="1" as="geometry" />
        </mxCell>
        <mxCell id="g58xPv6Zyt1ytckCVxfV-67" style="edgeStyle=orthogonalEdgeStyle;rounded=0;orthogonalLoop=1;jettySize=auto;html=1;exitX=1;exitY=0.25;exitDx=0;exitDy=0;entryX=0;entryY=0.25;entryDx=0;entryDy=0;fontSize=15;strokeColor=#FF0000;" edge="1" parent="1" source="382b91b5511bd0f7-7" target="g58xPv6Zyt1ytckCVxfV-27">
          <mxGeometry relative="1" as="geometry" />
        </mxCell>
        <mxCell id="g58xPv6Zyt1ytckCVxfV-82" style="edgeStyle=orthogonalEdgeStyle;rounded=0;orthogonalLoop=1;jettySize=auto;html=1;exitX=0.75;exitY=0;exitDx=0;exitDy=0;entryX=0.148;entryY=1.08;entryDx=0;entryDy=0;fontSize=15;strokeColor=#FF0000;entryPerimeter=0;" edge="1" parent="1" source="382b91b5511bd0f7-7" target="g58xPv6Zyt1ytckCVxfV-25">
          <mxGeometry relative="1" as="geometry">
            <Array as="points">
              <mxPoint x="624" y="120" />
            </Array>
          </mxGeometry>
        </mxCell>
        <mxCell id="g58xPv6Zyt1ytckCVxfV-83" style="edgeStyle=orthogonalEdgeStyle;rounded=0;orthogonalLoop=1;jettySize=auto;html=1;exitX=0.75;exitY=1;exitDx=0;exitDy=0;entryX=0.148;entryY=0.027;entryDx=0;entryDy=0;entryPerimeter=0;fontSize=15;strokeColor=#FF0000;" edge="1" parent="1" source="382b91b5511bd0f7-7" target="g58xPv6Zyt1ytckCVxfV-30">
          <mxGeometry relative="1" as="geometry">
            <Array as="points">
              <mxPoint x="624" y="200" />
            </Array>
          </mxGeometry>
        </mxCell>
        <mxCell id="382b91b5511bd0f7-7" value="&lt;b&gt;ĐỌC GIÁ TRỊ CẢM BIẾN&lt;/b&gt;&lt;br&gt;(S1, S2, S3, S4, S5)" style="rounded=1;whiteSpace=wrap;html=1;arcSize=24;fillColor=#ffffc0;strokeColor=#ff0000;shadow=0;comic=0;labelBackgroundColor=none;fontFamily=Verdana;fontSize=12;fontColor=#000000;align=center;" parent="1" vertex="1">
          <mxGeometry x="440" y="120" width="220" height="80" as="geometry" />
        </mxCell>
        <mxCell id="g58xPv6Zyt1ytckCVxfV-16" value="" style="edgeStyle=orthogonalEdgeStyle;rounded=0;orthogonalLoop=1;jettySize=auto;html=1;strokeColor=#FF0000;" edge="1" parent="1" source="g58xPv6Zyt1ytckCVxfV-3" target="382b91b5511bd0f7-7">
          <mxGeometry relative="1" as="geometry" />
        </mxCell>
        <mxCell id="g58xPv6Zyt1ytckCVxfV-3" value="IDLE" style="swimlane;fontStyle=5;align=center;verticalAlign=middle;childLayout=stackLayout;horizontal=1;startSize=30;horizontalStack=0;resizeParent=0;resizeLast=1;container=0;fontColor=#000000;collapsible=0;rounded=1;arcSize=30;strokeColor=#ff0000;fillColor=#ffffc0;swimlaneFillColor=#ffffc0;dropTarget=0;fontSize=15;" vertex="1" parent="1">
          <mxGeometry x="80" y="130" width="160" height="60" as="geometry" />
        </mxCell>
        <mxCell id="g58xPv6Zyt1ytckCVxfV-4" value="Motors dừng quay" style="text;html=1;strokeColor=none;fillColor=none;align=center;verticalAlign=middle;spacingLeft=4;spacingRight=4;whiteSpace=wrap;overflow=hidden;rotatable=0;fontColor=#000000;" vertex="1" parent="g58xPv6Zyt1ytckCVxfV-3">
          <mxGeometry y="30" width="160" height="30" as="geometry" />
        </mxCell>
        <mxCell id="g58xPv6Zyt1ytckCVxfV-13" value="" style="ellipse;html=1;shape=startState;fillColor=#000000;strokeColor=#ff0000;" vertex="1" parent="1">
          <mxGeometry x="145" y="-70" width="30" height="30" as="geometry" />
        </mxCell>
        <mxCell id="g58xPv6Zyt1ytckCVxfV-14" value="" style="edgeStyle=orthogonalEdgeStyle;html=1;verticalAlign=bottom;endArrow=open;endSize=8;strokeColor=#ff0000;" edge="1" source="g58xPv6Zyt1ytckCVxfV-13" parent="1">
          <mxGeometry relative="1" as="geometry">
            <mxPoint x="160" y="20" as="targetPoint" />
          </mxGeometry>
        </mxCell>
        <mxCell id="g58xPv6Zyt1ytckCVxfV-17" value="Tín hiệu từ Blynk&amp;nbsp;&lt;br&gt;(tốc độ, số điểm dừng)" style="text;html=1;align=center;verticalAlign=middle;resizable=0;points=[];autosize=1;strokeColor=none;" vertex="1" parent="1">
          <mxGeometry x="250" y="125" width="140" height="30" as="geometry" />
        </mxCell>
        <mxCell id="g58xPv6Zyt1ytckCVxfV-79" style="edgeStyle=orthogonalEdgeStyle;rounded=0;orthogonalLoop=1;jettySize=auto;html=1;exitX=0;exitY=0.5;exitDx=0;exitDy=0;fontSize=15;strokeColor=#FF0000;" edge="1" parent="1" source="g58xPv6Zyt1ytckCVxfV-24" target="382b91b5511bd0f7-7">
          <mxGeometry relative="1" as="geometry" />
        </mxCell>
        <mxCell id="g58xPv6Zyt1ytckCVxfV-24" value="RẼ TRÁI" style="swimlane;fontStyle=5;align=center;verticalAlign=middle;childLayout=stackLayout;horizontal=1;startSize=30;horizontalStack=0;resizeParent=0;resizeLast=1;container=0;fontColor=#000000;collapsible=0;rounded=1;arcSize=30;strokeColor=#ff0000;fillColor=#ffffc0;swimlaneFillColor=#ffffc0;dropTarget=0;fontSize=15;" vertex="1" parent="1">
          <mxGeometry x="600" y="-60" width="160" height="60" as="geometry" />
        </mxCell>
        <mxCell id="g58xPv6Zyt1ytckCVxfV-25" value="Motor quay ngược chiều" style="text;html=1;strokeColor=none;fillColor=none;align=center;verticalAlign=middle;spacingLeft=4;spacingRight=4;whiteSpace=wrap;overflow=hidden;rotatable=0;fontColor=#000000;" vertex="1" parent="g58xPv6Zyt1ytckCVxfV-24">
          <mxGeometry y="30" width="160" height="30" as="geometry" />
        </mxCell>
        <mxCell id="g58xPv6Zyt1ytckCVxfV-27" value="ĐI THẲNG" style="swimlane;fontStyle=5;align=center;verticalAlign=middle;childLayout=stackLayout;horizontal=1;startSize=30;horizontalStack=0;resizeParent=0;resizeLast=1;container=0;fontColor=#000000;collapsible=0;rounded=1;arcSize=30;strokeColor=#ff0000;fillColor=#ffffc0;swimlaneFillColor=#ffffc0;dropTarget=0;fontSize=15;" vertex="1" parent="1">
          <mxGeometry x="830" y="125" width="160" height="60" as="geometry" />
        </mxCell>
        <mxCell id="g58xPv6Zyt1ytckCVxfV-49" value="Motors quay cùng chiều" style="text;html=1;strokeColor=none;fillColor=none;align=center;verticalAlign=middle;spacingLeft=4;spacingRight=4;whiteSpace=wrap;overflow=hidden;rotatable=0;fontColor=#000000;" vertex="1" parent="g58xPv6Zyt1ytckCVxfV-27">
          <mxGeometry y="30" width="160" height="30" as="geometry" />
        </mxCell>
        <mxCell id="g58xPv6Zyt1ytckCVxfV-80" style="edgeStyle=orthogonalEdgeStyle;rounded=0;orthogonalLoop=1;jettySize=auto;html=1;exitX=0;exitY=0.5;exitDx=0;exitDy=0;entryX=0.5;entryY=1;entryDx=0;entryDy=0;fontSize=15;strokeColor=#FF0000;" edge="1" parent="1" source="g58xPv6Zyt1ytckCVxfV-30" target="382b91b5511bd0f7-7">
          <mxGeometry relative="1" as="geometry" />
        </mxCell>
        <mxCell id="g58xPv6Zyt1ytckCVxfV-30" value="RẼ PHẢI" style="swimlane;fontStyle=5;align=center;verticalAlign=middle;childLayout=stackLayout;horizontal=1;startSize=30;horizontalStack=0;resizeParent=0;resizeLast=1;container=0;fontColor=#000000;collapsible=0;rounded=1;arcSize=30;strokeColor=#ff0000;fillColor=#ffffc0;swimlaneFillColor=#ffffc0;dropTarget=0;fontSize=15;" vertex="1" parent="1">
          <mxGeometry x="600" y="320" width="160" height="60" as="geometry" />
        </mxCell>
        <mxCell id="g58xPv6Zyt1ytckCVxfV-46" style="edgeStyle=orthogonalEdgeStyle;rounded=0;orthogonalLoop=1;jettySize=auto;html=1;entryX=0.5;entryY=1;entryDx=0;entryDy=0;strokeColor=#FF0000;" edge="1" parent="1" source="g58xPv6Zyt1ytckCVxfV-35" target="g58xPv6Zyt1ytckCVxfV-4">
          <mxGeometry relative="1" as="geometry" />
        </mxCell>
        <mxCell id="g58xPv6Zyt1ytckCVxfV-60" style="edgeStyle=orthogonalEdgeStyle;rounded=0;orthogonalLoop=1;jettySize=auto;html=1;exitX=1;exitY=0.5;exitDx=0;exitDy=0;entryX=0.198;entryY=1.03;entryDx=0;entryDy=0;entryPerimeter=0;fontSize=15;strokeColor=#FF0000;" edge="1" parent="1" source="g58xPv6Zyt1ytckCVxfV-35" target="382b91b5511bd0f7-7">
          <mxGeometry relative="1" as="geometry" />
        </mxCell>
        <mxCell id="g58xPv6Zyt1ytckCVxfV-35" value="Điều kiện dừng" style="rhombus;whiteSpace=wrap;html=1;fillColor=#ffffc0;strokeColor=#ff0000;" vertex="1" parent="1">
          <mxGeometry x="315" y="370" width="130" height="70" as="geometry" />
        </mxCell>
        <mxCell id="g58xPv6Zyt1ytckCVxfV-45" value="" style="edgeStyle=orthogonalEdgeStyle;rounded=0;orthogonalLoop=1;jettySize=auto;html=1;strokeColor=#FF0000;" edge="1" parent="1" source="g58xPv6Zyt1ytckCVxfV-38" target="g58xPv6Zyt1ytckCVxfV-35">
          <mxGeometry relative="1" as="geometry" />
        </mxCell>
        <mxCell id="g58xPv6Zyt1ytckCVxfV-38" value="Cập nhật biến đếm" style="rounded=1;whiteSpace=wrap;html=1;arcSize=40;fontColor=#000000;fillColor=#ffffc0;strokeColor=#ff0000;" vertex="1" parent="1">
          <mxGeometry x="320" y="260" width="120" height="60" as="geometry" />
        </mxCell>
        <mxCell id="g58xPv6Zyt1ytckCVxfV-72" style="edgeStyle=orthogonalEdgeStyle;rounded=0;orthogonalLoop=1;jettySize=auto;html=1;entryX=0.5;entryY=0;entryDx=0;entryDy=0;fontSize=15;strokeColor=#FF0000;" edge="1" parent="1" source="g58xPv6Zyt1ytckCVxfV-40" target="g58xPv6Zyt1ytckCVxfV-3">
          <mxGeometry relative="1" as="geometry" />
        </mxCell>
        <mxCell id="g58xPv6Zyt1ytckCVxfV-40" value="Khởi tạo biến đếm" style="rounded=1;whiteSpace=wrap;html=1;arcSize=40;fontColor=#000000;fillColor=#ffffc0;strokeColor=#ff0000;" vertex="1" parent="1">
          <mxGeometry x="100" y="25" width="120" height="40" as="geometry" />
        </mxCell>
        <mxCell id="g58xPv6Zyt1ytckCVxfV-47" value="Đúng" style="text;html=1;align=center;verticalAlign=middle;resizable=0;points=[];autosize=1;strokeColor=none;" vertex="1" parent="1">
          <mxGeometry x="270" y="385" width="40" height="20" as="geometry" />
        </mxCell>
        <mxCell id="g58xPv6Zyt1ytckCVxfV-56" value="&lt;font style=&quot;font-size: 12px&quot;&gt;Sai&lt;br&gt;&lt;/font&gt;" style="text;html=1;align=center;verticalAlign=middle;resizable=0;points=[];autosize=1;strokeColor=none;fontSize=15;" vertex="1" parent="1">
          <mxGeometry x="445" y="385" width="30" height="20" as="geometry" />
        </mxCell>
        <mxCell id="g58xPv6Zyt1ytckCVxfV-65" value="&lt;font style=&quot;font-size: 12px&quot;&gt;S1=0 &amp;amp; S5=1&lt;/font&gt;" style="text;html=1;align=center;verticalAlign=middle;resizable=0;points=[];autosize=1;strokeColor=none;fontSize=15;" vertex="1" parent="1">
          <mxGeometry x="620" y="45" width="90" height="20" as="geometry" />
        </mxCell>
        <mxCell id="g58xPv6Zyt1ytckCVxfV-66" value="&lt;font style=&quot;font-size: 12px&quot;&gt;S5 = 0 &amp;amp; S1 = 1&lt;/font&gt;" style="text;html=1;align=center;verticalAlign=middle;resizable=0;points=[];autosize=1;strokeColor=none;fontSize=15;" vertex="1" parent="1">
          <mxGeometry x="620" y="250" width="100" height="20" as="geometry" />
        </mxCell>
        <mxCell id="g58xPv6Zyt1ytckCVxfV-69" value="&lt;font style=&quot;font-size: 12px&quot;&gt;S3=0 &amp;amp; S1=1 &amp;amp; S5=1&lt;/font&gt;" style="text;html=1;align=center;verticalAlign=middle;resizable=0;points=[];autosize=1;strokeColor=none;fontSize=15;" vertex="1" parent="1">
          <mxGeometry x="680" y="120" width="130" height="20" as="geometry" />
        </mxCell>
        <mxCell id="g58xPv6Zyt1ytckCVxfV-70" value="&lt;font style=&quot;font-size: 12px&quot;&gt;S1=S2=S3=S4=S5=0&lt;/font&gt;" style="text;html=1;align=center;verticalAlign=middle;resizable=0;points=[];autosize=1;strokeColor=none;fontSize=15;" vertex="1" parent="1">
          <mxGeometry x="250" y="210" width="130" height="20" as="geometry" />
        </mxCell>
        <mxCell id="g58xPv6Zyt1ytckCVxfV-31" value="Motor quay ngược chiều" style="text;html=1;strokeColor=none;fillColor=none;align=center;verticalAlign=middle;spacingLeft=4;spacingRight=4;whiteSpace=wrap;overflow=hidden;rotatable=0;fontColor=#000000;" vertex="1" parent="1">
          <mxGeometry x="600" y="350" width="160" height="30" as="geometry" />
        </mxCell>
        <mxCell id="g58xPv6Zyt1ytckCVxfV-77" style="edgeStyle=orthogonalEdgeStyle;rounded=0;orthogonalLoop=1;jettySize=auto;html=1;exitX=0;exitY=0.5;exitDx=0;exitDy=0;entryX=1.01;entryY=0.62;entryDx=0;entryDy=0;entryPerimeter=0;fontSize=15;strokeColor=#FF0000;" edge="1" parent="1" source="g58xPv6Zyt1ytckCVxfV-49" target="382b91b5511bd0f7-7">
          <mxGeometry relative="1" as="geometry" />
        </mxCell>
      </root>
    </mxGraphModel>
  </diagram>
</mxfile>
